<svg id="visual" viewBox="0 0 900 600" width="900" height="600" xmlns="http://www.w3.org/2000/svg" xmlns:xlink="http://www.w3.org/1999/xlink" version="1.1"><rect x="0" y="0" width="900" height="600" fill="#ffffff"></rect><path d="M0 147L41 179L82 171L123 148L164 162L205 164L245 176L286 137L327 115L368 144L409 157L450 163L491 129L532 170L573 187L614 143L655 136L695 170L736 162L777 119L818 139L859 111L900 175L900 0L859 0L818 0L777 0L736 0L695 0L655 0L614 0L573 0L532 0L491 0L450 0L409 0L368 0L327 0L286 0L245 0L205 0L164 0L123 0L82 0L41 0L0 0Z" fill="#6461a0"></path><path d="M0 155L41 129L82 135L123 156L164 159L205 159L245 130L286 124L327 133L368 121L409 121L450 142L491 145L532 121L573 124L614 124L655 140L695 156L736 147L777 133L818 158L859 107L900 123L900 0L859 0L818 0L777 0L736 0L695 0L655 0L614 0L573 0L532 0L491 0L450 0L409 0L368 0L327 0L286 0L245 0L205 0L164 0L123 0L82 0L41 0L0 0Z" fill="#5d5da4"></path><path d="M0 73L41 125L82 81L123 74L164 114L205 95L245 134L286 81L327 135L368 92L409 113L450 75L491 135L532 89L573 128L614 120L655 109L695 83L736 106L777 85L818 120L859 105L900 112L900 0L859 0L818 0L777 0L736 0L695 0L655 0L614 0L573 0L532 0L491 0L450 0L409 0L368 0L327 0L286 0L245 0L205 0L164 0L123 0L82 0L41 0L0 0Z" fill="#5558a9"></path><path d="M0 87L41 97L82 55L123 93L164 87L205 96L245 108L286 57L327 54L368 65L409 83L450 97L491 69L532 99L573 86L614 75L655 79L695 97L736 82L777 59L818 106L859 104L900 65L900 0L859 0L818 0L777 0L736 0L695 0L655 0L614 0L573 0L532 0L491 0L450 0L409 0L368 0L327 0L286 0L245 0L205 0L164 0L123 0L82 0L41 0L0 0Z" fill="#4c54ad"></path><path d="M0 67L41 73L82 71L123 55L164 37L205 62L245 59L286 56L327 75L368 43L409 56L450 71L491 39L532 54L573 57L614 66L655 52L695 65L736 46L777 78L818 64L859 62L900 58L900 0L859 0L818 0L777 0L736 0L695 0L655 0L614 0L573 0L532 0L491 0L450 0L409 0L368 0L327 0L286 0L245 0L205 0L164 0L123 0L82 0L41 0L0 0Z" fill="#4050b2"></path><path d="M0 36L41 45L82 47L123 26L164 45L205 17L245 41L286 28L327 19L368 38L409 27L450 31L491 40L532 34L573 50L614 36L655 35L695 27L736 39L777 48L818 30L859 46L900 38L900 0L859 0L818 0L777 0L736 0L695 0L655 0L614 0L573 0L532 0L491 0L450 0L409 0L368 0L327 0L286 0L245 0L205 0L164 0L123 0L82 0L41 0L0 0Z" fill="#314cb6"></path></svg>